<svg xmlns="http://www.w3.org/2000/svg" viewBox="0 0 39.81 31.65"><defs><style>.cls-1{fill:none;}.cls-1,.cls-2{stroke:#000;stroke-linecap:round;stroke-linejoin:round;}</style></defs><g id="Layer_2" data-name="Layer 2"><g id="v1"><g id="_03" data-name="03"><path class="cls-1" d="M33.54,10.19H6.39a3,3,0,0,0-3,3.05V24.73a3,3,0,0,0,3,3H33.54a3,3,0,0,0,3-3V13.24A3,3,0,0,0,33.54,10.19Z"/><path class="cls-1" d="M12.41,9.93s1.46-4.54,7.88-4.54,8.14,4.75,8.14,4.75"/><path class="cls-1" d="M19.12,5.29,19,1.9a1.53,1.53,0,0,1,.13-.82C19.41.64,20,.56,20.5.52a1.34,1.34,0,0,1,1.06.21,1.36,1.36,0,0,1,.27,1.07L21.7,5.27l-.06-.15"/><path class="cls-1" d="M3.22,13.22A2.23,2.23,0,0,0,.88,14c-.52.7-.49,4.53,0,5.27s1.43,1.93,2.29,1.76"/><path class="cls-1" d="M36.48,12.26a2.78,2.78,0,0,1,2.44.83c.51.56.47,5,.13,5.68s-1.55,2.55-2.29,2.46"/><path class="cls-1" d="M7,27.82H33.9a0,0,0,0,1,0,0v1.86a1.47,1.47,0,0,1-1.47,1.47h-24A1.47,1.47,0,0,1,7,29.69V27.82A0,0,0,0,1,7,27.82Z"/><path class="cls-2" d="M6.05,18.23s-.13-3.51,3.28-3.61S12.77,18,12.77,18a4.08,4.08,0,0,0-3.54-1.22C6.8,17,6.05,18.23,6.05,18.23Z"/><path class="cls-2" d="M26.87,18.23s-.13-3.51,3.28-3.61S33.59,18,33.59,18a4.08,4.08,0,0,0-3.54-1.22C27.62,17,26.87,18.23,26.87,18.23Z"/><path class="cls-1" d="M14.07,19.84l11.22-.16L25.37,22S24,24.47,19.66,24.38s-5.56-2.17-5.56-2.17Z"/><line class="cls-1" x1="25.37" y1="22.03" x2="14.1" y2="22.21"/><path d="M19.66,24.38c1.67,0,4.31-.33,5.71-2.35l-11.27.18S15.71,24.35,19.66,24.38Z"/></g></g></g></svg>